
<?xml version="1.0" standalone="no"?>
<!DOCTYPE svg PUBLIC "-//W3C//DTD SVG 20010904//EN"
 "http://www.w3.org/TR/2001/REC-SVG-20010904/DTD/svg10.dtd">
<svg version="1.0" xmlns="http://www.w3.org/2000/svg"
 width="512.000000pt" height="512.000000pt" viewBox="0 0 512.000000 512.000000"
 preserveAspectRatio="xMidYMid meet">

<g transform="translate(0.000000,512.000000) scale(0.100000,-0.100000)"
fill="#000000" stroke="none">
<path d="M2410 5104 c-148 -32 -265 -97 -375 -208 -92 -93 -144 -177 -182
-291 -26 -77 -27 -89 -31 -348 -4 -296 -1 -316 58 -401 36 -53 105 -104 164
-121 36 -10 45 -20 72 -71 17 -32 50 -80 73 -106 31 -35 41 -54 41 -81 l0 -34
-221 -84 c-242 -90 -293 -120 -360 -209 -69 -92 -79 -146 -79 -426 l0 -244
990 0 990 0 0 244 c0 279 -10 334 -78 425 -75 99 -121 124 -479 256 l-103 38
0 34 c0 27 10 46 41 81 23 26 56 74 73 106 27 51 36 61 72 71 96 28 190 127
214 226 8 30 10 135 8 305 l-3 259 -31 88 c-40 111 -83 182 -162 268 -175 190
-445 277 -692 223z m294 -169 c155 -41 300 -157 369 -296 40 -82 67 -185 67
-261 l0 -47 -44 19 c-26 12 -85 23 -147 29 -153 14 -236 49 -336 144 l-53 50
-52 -50 c-101 -95 -184 -130 -337 -144 -62 -6 -121 -17 -147 -29 l-44 -19 0
47 c0 71 25 175 60 246 73 155 207 265 375 311 68 19 218 18 289 0z m-95 -619
c60 -41 143 -74 224 -89 l58 -11 -3 -210 c-3 -195 -5 -214 -26 -257 -52 -106
-157 -182 -270 -196 -108 -12 -239 48 -304 142 -49 71 -58 120 -58 330 l0 191
58 11 c80 15 164 49 219 88 27 18 49 33 49 34 1 1 25 -14 53 -33z m-549 -273
l0 -137 -30 29 c-35 33 -55 94 -46 139 7 35 51 106 66 106 6 0 10 -54 10 -137z
m1060 72 c30 -63 22 -123 -25 -173 l-34 -37 -1 138 c0 132 1 137 19 128 10 -6
29 -31 41 -56z m-588 -722 c52 -3 107 -1 134 6 26 7 48 10 51 8 4 -5 -149
-266 -157 -267 -5 0 -150 241 -159 263 -2 6 6 7 20 3 13 -4 63 -10 111 -13z
m-173 -247 c45 -74 81 -136 81 -138 0 -7 -159 -82 -163 -77 -6 6 -107 312
-104 314 10 7 85 33 94 34 6 1 48 -59 92 -133z m542 117 c27 -10 48 -22 46
-28 -2 -5 -26 -75 -52 -155 -26 -80 -49 -147 -52 -149 -4 -5 -163 70 -163 77
0 9 162 272 167 272 3 0 27 -8 54 -17z m-801 -328 l81 -244 190 94 189 95 189
-95 190 -94 81 244 c45 135 87 245 93 245 29 0 151 -57 186 -87 22 -18 50 -54
63 -81 21 -43 23 -59 23 -207 l0 -160 -825 0 -825 0 0 160 c0 147 2 164 24
207 30 63 87 111 169 142 37 14 72 25 79 25 6 1 47 -107 93 -244z"/>
<path d="M1237 4293 l-57 -58 92 -92 93 -93 -196 0 c-239 0 -281 -9 -350 -79
-82 -81 -79 -48 -79 -908 l0 -753 85 0 85 0 0 760 0 761 25 24 c24 25 25 25
227 25 l203 0 -93 -93 -92 -93 60 -59 60 -60 193 193 192 192 -195 195 -195
195 -58 -57z"/>
<path d="M3470 3966 l0 -86 219 0 c206 0 220 -1 245 -21 l26 -20 0 -537 0
-537 -93 93 -93 92 -59 -60 -60 -60 190 -190 c104 -105 194 -190 200 -190 6 0
96 85 200 190 l190 190 -60 60 -59 60 -93 -92 -92 -92 -3 550 c-3 541 -3 550
-25 589 -25 47 -74 95 -123 121 -31 17 -64 19 -272 22 l-238 4 0 -86z"/>
<path d="M3641 2273 c-5 -21 -19 -73 -30 -116 -10 -43 -22 -81 -25 -84 -3 -3
-53 23 -112 57 l-106 63 -220 -221 -221 -220 63 -106 c34 -59 60 -109 57 -112
-2 -3 -57 -19 -121 -36 l-116 -31 0 -312 0 -313 113 -27 c61 -15 116 -31 120
-35 5 -4 -19 -54 -52 -111 -34 -57 -61 -105 -61 -109 0 -3 99 -104 219 -224
l219 -219 101 62 c56 33 106 61 111 61 9 0 11 -6 50 -152 l23 -88 311 0 311 0
29 113 c16 61 33 116 37 121 4 5 55 -19 115 -54 l107 -62 220 220 219 219 -62
107 c-35 60 -59 111 -54 115 5 5 60 21 122 36 l112 27 0 313 0 313 -77 20
c-43 12 -97 26 -120 32 -24 6 -43 15 -43 20 0 5 28 55 61 111 l62 101 -219
219 c-120 120 -221 219 -224 219 -4 0 -52 -27 -109 -61 -57 -33 -107 -57 -111
-52 -4 4 -20 59 -35 121 l-27 112 -314 0 -313 0 -10 -37z m529 -215 c13 -51
26 -97 30 -101 4 -5 42 -23 83 -41 l75 -33 83 48 c46 27 88 49 94 49 12 0 255
-241 255 -253 0 -5 -22 -46 -49 -91 l-50 -82 32 -81 32 -82 95 -23 95 -24 3
-187 2 -186 -37 -10 c-21 -5 -64 -16 -96 -25 -33 -8 -60 -16 -61 -18 -1 -2
-16 -38 -33 -81 l-32 -77 51 -86 51 -86 -130 -130 -130 -130 -86 50 -86 51
-78 -32 c-43 -17 -79 -32 -81 -33 -2 -1 -10 -28 -18 -61 -9 -32 -20 -75 -25
-95 l-10 -38 -184 0 -184 0 -15 53 c-8 28 -20 72 -26 97 -11 45 -12 45 -93 77
l-81 32 -82 -50 c-45 -27 -86 -49 -90 -49 -12 0 -254 243 -254 255 0 6 22 48
49 94 l48 83 -33 75 c-18 41 -36 79 -41 83 -4 4 -50 17 -100 30 l-93 22 0 183
0 183 83 21 c45 12 90 25 100 29 10 4 33 42 52 85 l33 78 -49 82 c-27 45 -49
86 -49 92 0 13 242 255 255 255 5 0 47 -22 92 -49 l82 -49 76 33 c42 18 78 35
81 38 3 3 12 31 20 64 9 32 20 75 25 96 l10 37 183 0 184 0 22 -92z"/>
<path d="M3875 1811 c-86 -14 -137 -31 -216 -72 -219 -114 -351 -330 -352
-579 -1 -119 13 -181 69 -297 72 -151 201 -266 372 -331 61 -24 80 -26 212
-27 132 0 151 2 218 27 104 38 175 83 251 159 77 78 122 148 159 251 25 67 27
86 27 218 -1 132 -3 151 -27 212 -39 104 -86 176 -166 255 -58 58 -91 82 -165
117 -50 24 -112 49 -137 54 -66 16 -188 22 -245 13z m210 -176 c254 -67 417
-324 364 -577 -39 -187 -200 -348 -387 -387 -298 -62 -592 177 -592 481 0 323
305 563 615 483z"/>
<path d="M3881 1475 c-71 -20 -110 -45 -165 -106 -142 -158 -90 -409 106 -510
66 -34 184 -38 263 -8 80 30 154 104 184 184 30 79 26 197 -8 263 -73 142
-235 217 -380 177z m164 -178 c45 -25 85 -92 85 -143 0 -51 -40 -115 -90 -141
-52 -28 -91 -29 -146 -4 -48 22 -83 66 -91 115 -23 142 118 243 242 173z"/>
<path d="M0 1075 l0 -1075 825 0 825 0 0 1075 0 1075 -825 0 -825 0 0 -1075z
m1490 0 l0 -905 -660 0 -660 0 0 905 0 905 660 0 660 0 0 -905z"/>
<path d="M330 1735 l0 -85 495 0 495 0 0 85 0 85 -495 0 -495 0 0 -85z"/>
<path d="M330 1405 l0 -86 83 3 82 3 0 80 0 80 -82 3 -83 3 0 -86z"/>
<path d="M660 1405 l0 -85 330 0 330 0 0 85 0 85 -330 0 -330 0 0 -85z"/>
<path d="M330 1075 l0 -85 495 0 495 0 0 85 0 85 -495 0 -495 0 0 -85z"/>
<path d="M330 745 l0 -85 495 0 495 0 0 85 0 85 -495 0 -495 0 0 -85z"/>
<path d="M330 415 l0 -85 330 0 330 0 0 85 0 85 -330 0 -330 0 0 -85z"/>
<path d="M1160 415 l0 -85 80 0 80 0 0 85 0 85 -80 0 -80 0 0 -85z"/>
<path d="M1892 1347 l-192 -192 195 -195 195 -195 57 58 58 57 -95 95 -95 95
313 0 312 0 0 85 0 85 -312 0 -313 0 95 95 94 95 -54 55 c-30 30 -57 55 -60
55 -3 0 -92 -87 -198 -193z"/>
</g>
</svg>
