
<?xml version="1.0" standalone="no"?>
<!DOCTYPE svg PUBLIC "-//W3C//DTD SVG 20010904//EN"
 "http://www.w3.org/TR/2001/REC-SVG-20010904/DTD/svg10.dtd">
<svg version="1.0" xmlns="http://www.w3.org/2000/svg"
 width="512.000000pt" height="512.000000pt" viewBox="0 0 512.000000 512.000000"
 preserveAspectRatio="xMidYMid meet">

<g transform="translate(0.000000,512.000000) scale(0.100000,-0.100000)"
fill="#000000" stroke="none">
<path d="M1635 4940 c-115 -37 -219 -142 -255 -259 -62 -197 27 -395 218 -484
55 -26 81 -31 151 -34 l85 -2 21 -53 c12 -29 25 -53 29 -52 27 2 136 50 136
60 0 7 -9 33 -20 59 l-20 47 50 44 c46 42 120 165 120 200 0 12 70 14 410 14
340 0 410 -2 410 -14 0 -35 74 -158 120 -199 l50 -45 -40 -96 -39 -97 22 -8
c12 -5 46 -18 75 -30 49 -20 53 -20 59 -3 4 9 21 52 38 95 l31 78 85 2 c67 3
97 9 147 32 l64 28 320 -321 321 -320 -28 -64 c-23 -50 -29 -80 -32 -147 l-2
-85 -278 -111 c-153 -61 -286 -114 -295 -118 -17 -6 -17 -10 3 -59 12 -29 25
-63 30 -75 8 -21 15 -19 305 97 l297 119 44 -49 c41 -46 164 -120 199 -120 12
0 14 -70 14 -410 0 -340 -2 -410 -14 -410 -35 0 -158 -74 -199 -120 l-44 -49
-113 45 c-62 25 -116 42 -121 37 -8 -9 -60 -135 -56 -138 1 -1 53 -22 115 -47
l113 -44 2 -85 c3 -67 9 -97 32 -147 l28 -63 -79 -80 -79 -79 58 -57 59 -56
78 78 79 78 63 -29 c55 -25 75 -29 159 -29 90 0 99 2 171 37 91 45 147 103
191 196 29 61 32 76 32 162 0 86 -3 101 -32 162 -42 90 -100 150 -186 193 -38
19 -76 35 -83 35 -12 0 -14 70 -14 410 0 340 2 410 14 410 7 0 45 16 83 35 86
43 144 103 186 193 29 61 32 76 32 162 0 86 -3 101 -32 162 -44 93 -100 151
-191 196 -72 35 -81 37 -171 37 -84 0 -104 -4 -159 -29 l-64 -29 -320 321
-321 320 29 64 c25 55 29 75 29 159 0 90 -2 99 -37 171 -45 91 -103 147 -196
191 -61 29 -76 32 -162 32 -86 0 -101 -3 -162 -32 -90 -42 -150 -100 -193
-186 -19 -38 -35 -76 -35 -83 0 -12 -70 -14 -410 -14 -321 0 -410 3 -410 13 0
26 -60 137 -95 175 -104 116 -269 160 -420 112z m199 -152 c55 -16 138 -99
154 -154 28 -94 8 -169 -63 -239 -51 -52 -102 -75 -165 -75 -124 0 -240 116
-240 240 0 63 23 114 75 165 70 71 145 90 239 63z m1600 0 c86 -26 166 -136
166 -228 0 -124 -116 -240 -240 -240 -63 0 -114 23 -165 75 -102 101 -102 229
0 330 70 71 145 90 239 63z m1200 -1200 c86 -26 166 -136 166 -228 0 -124
-116 -240 -240 -240 -63 0 -114 23 -165 75 -102 101 -102 229 0 330 70 71 145
90 239 63z m0 -1600 c86 -26 166 -136 166 -228 0 -124 -116 -240 -240 -240
-124 0 -240 116 -240 240 0 63 23 114 75 165 70 71 145 90 239 63z"/>
<path d="M1028 3943 l-246 -246 -64 29 c-55 25 -75 29 -159 29 -90 0 -99 -2
-171 -37 -91 -45 -147 -103 -191 -196 -29 -61 -32 -76 -32 -162 0 -86 3 -101
32 -162 42 -90 100 -150 186 -193 38 -19 76 -35 83 -35 12 0 14 -70 14 -410 0
-340 -2 -410 -14 -410 -7 0 -45 -16 -83 -35 -86 -43 -144 -103 -186 -193 -29
-61 -32 -76 -32 -163 0 -90 2 -99 37 -171 45 -91 103 -147 196 -191 61 -29 76
-32 162 -32 83 0 103 4 158 29 l64 29 320 -321 321 -320 -29 -64 c-25 -55 -29
-75 -29 -159 0 -90 2 -99 38 -171 44 -91 102 -146 197 -192 59 -28 74 -31 160
-31 86 0 101 3 162 32 90 42 150 100 193 186 19 38 35 76 35 83 0 12 70 14
410 14 340 0 410 -2 410 -14 0 -7 16 -45 35 -83 43 -86 103 -144 193 -186 61
-29 76 -32 162 -32 86 0 101 3 162 32 93 44 151 100 196 191 35 72 37 81 37
171 0 84 -4 104 -29 159 l-29 63 174 175 174 174 -58 57 -57 58 -174 -174
-175 -174 -63 29 c-55 25 -75 29 -158 29 -86 0 -101 -3 -162 -32 -90 -42 -150
-100 -193 -186 -19 -38 -35 -76 -35 -83 0 -12 -70 -14 -410 -14 -340 0 -410 2
-410 14 0 35 -74 158 -120 200 l-50 44 20 47 c11 26 20 52 20 59 0 11 -117 61
-137 59 -4 -1 -17 -24 -29 -52 l-20 -52 -85 -2 c-67 -3 -97 -9 -147 -32 l-64
-28 -320 321 -321 320 28 64 c23 50 29 80 32 147 l2 85 278 111 c153 61 286
114 295 118 17 6 17 10 -3 59 -12 29 -25 63 -30 75 -8 21 -15 19 -305 -97
l-297 -119 -44 49 c-41 46 -164 120 -199 120 -12 0 -14 70 -14 410 0 340 2
410 14 410 35 0 158 74 199 120 l44 49 297 -119 c290 -116 297 -118 305 -97 5
12 18 46 30 75 20 49 20 53 3 59 -9 4 -142 57 -295 118 l-278 111 -2 85 c-3
67 -9 97 -32 147 l-28 63 246 247 247 247 -55 58 c-29 31 -55 57 -57 57 -2 0
-114 -111 -250 -247z m-394 -355 c86 -26 166 -136 166 -228 0 -124 -116 -240
-240 -240 -63 0 -114 23 -165 75 -102 101 -102 229 0 330 70 71 145 90 239 63z
m0 -1600 c55 -16 138 -99 154 -154 28 -94 8 -169 -63 -239 -101 -102 -229
-102 -330 0 -102 101 -102 229 0 330 70 71 145 90 239 63z m1200 -1200 c86
-26 166 -136 166 -228 0 -124 -116 -240 -240 -240 -124 0 -240 116 -240 240 0
63 23 114 75 165 70 71 145 90 239 63z m1600 0 c86 -26 166 -136 166 -228 0
-124 -116 -240 -240 -240 -124 0 -240 116 -240 240 0 63 23 114 75 165 70 71
145 90 239 63z"/>
<path d="M1924 3911 c-48 -12 -133 -62 -160 -94 -14 -17 -37 -53 -51 -81 -23
-45 -27 -66 -31 -173 l-4 -123 80 0 80 0 4 109 c3 118 12 141 72 185 23 18 45
21 151 24 l124 4 35 -71 c20 -39 45 -75 55 -81 12 -6 119 -10 281 -10 162 0
269 4 281 10 10 6 35 42 54 80 l35 70 110 0 c129 0 165 -11 206 -66 l29 -37 3
-730 2 -730 -88 85 c-93 89 -147 118 -222 118 -130 0 -250 -120 -250 -250 0
-85 26 -127 165 -270 l131 -135 -24 -65 c-50 -132 -40 -309 23 -449 14 -29 25
-66 25 -82 l0 -29 80 0 80 0 0 49 c0 36 -10 70 -37 127 -37 77 -38 82 -38 190
0 108 1 113 38 185 20 41 37 85 37 98 0 18 -43 67 -160 186 -140 142 -160 166
-160 194 0 45 47 91 91 91 30 0 56 -23 259 -225 124 -124 230 -225 235 -225
13 0 105 94 105 106 0 5 -29 39 -65 74 l-65 64 0 286 0 285 90 -90 c59 -58
100 -110 118 -145 l27 -55 3 -478 3 -477 79 0 80 0 0 460 c0 295 -4 478 -11
512 -24 114 -63 172 -231 343 l-157 161 -3 424 -3 425 -27 51 c-40 76 -70 107
-140 145 l-63 34 -625 2 c-344 1 -639 -2 -656 -6z"/>
<path d="M1682 2318 l3 -963 27 -51 c40 -76 70 -107 140 -145 l63 -34 483 -3
482 -3 0 80 0 80 -468 3 -469 3 -37 29 c-70 53 -66 -4 -66 1031 l0 935 -80 0
-80 0 2 -962z"/>
<path d="M2455 3113 c-121 -17 -273 -82 -367 -158 -32 -26 -58 -50 -58 -54 0
-4 24 -31 54 -60 l55 -54 43 37 c91 78 251 136 378 136 127 0 287 -58 378
-136 l44 -37 56 57 57 57 -40 35 c-156 136 -392 206 -600 177z"/>
<path d="M2455 2805 c-27 -8 -53 -14 -56 -15 -12 0 -129 -82 -129 -89 0 -10
96 -111 105 -111 4 0 20 9 35 20 40 28 105 50 150 50 45 0 110 -22 150 -50 15
-11 31 -20 35 -20 8 0 105 101 105 110 0 13 -104 79 -150 96 -64 22 -184 27
-245 9z"/>
<path d="M2160 2240 l0 -80 80 0 80 0 0 80 0 80 -80 0 -80 0 0 -80z"/>
<path d="M2480 2240 l0 -80 80 0 80 0 0 80 0 80 -80 0 -80 0 0 -80z"/>
<path d="M2400 1520 l0 -80 160 0 160 0 0 80 0 80 -160 0 -160 0 0 -80z"/>
</g>
</svg>
