
<?xml version="1.0" encoding="utf-8"?>
<!-- Generator: Adobe Illustrator 17.0.0, SVG Export Plug-In . SVG Version: 6.00 Build 0)  -->
<!DOCTYPE svg PUBLIC "-//W3C//DTD SVG 1.1//EN" "http://www.w3.org/Graphics/SVG/1.1/DTD/svg11.dtd">
<svg version="1.1" id="Layer_1" xmlns="http://www.w3.org/2000/svg" xmlns:xlink="http://www.w3.org/1999/xlink" x="0px" y="0px"
	 width="512px" height="512px" viewBox="0 0 512 512" enable-background="new 0 0 512 512" xml:space="preserve">
<g transform="translate(0.000000,512.000000) scale(0.100000,-0.100000)">
	<path fill="#2066F3" d="M2980,5031c-60-19-151-73-175-105c-35-46-58-122-50-166c7-41,88-222,117-263c11-16,19-29,17-31
		s-209-98-459-215s-463-220-472-228c-63-57,48-217,177-258c102-32,142-22,498,120c186,74,322,124,327,119c8-8,140-301,196-433l14-34
		l-254-256c-139-141-262-272-272-291c-13-24-19-57-19-105v-70l189-312l188-312l-31-62l-31-62v-253v-254l-26,10c-14,6-162,10-348,10
		c-375,0-387-2-459-79c-57-61-67-97-67-251v-125l-197,3c-109,2-199,5-200,6s12,114,29,251c45,363,50,350-262,562
		c-118,80-220,150-226,157c-8,7-13,97-17,272l-5,261l246,149c151,92,264,167,294,197c80,79,128,197,127,307c-2,128-42,188-109,163
		c-17-6-176-91-354-187c-178-97-326-176-330-176c-3,0-6,7-6,15c0,26-98,212-132,251c-70,80-169,95-278,43c-36-17-79-41-96-54
		c-44-34-74-103-74-171c0-49,8-72,56-168c31-61,70-125,86-143l30-31l-21-31c-40-56-53-111-58-248c-6-145-2-174,27-203
		c26-26,60-25,93,0c25,20,25,23,29,168c4,157,10,181,61,233c26,25,916,514,923,506c2-2-3-27-11-55c-28-92-76-131-435-348
		c-179-108-335-206-347-217c-67-61,21-163,95-111c13,9,26,13,30,9s7-99,7-213v-206l-150-62c-82-35-156-63-162-63c-8-1-13,13-13,38
		c0,51-25,82-68,83c-59,2-76-27-80-135c-3-86,1-111,67-381c39-159,71-298,71-308c0-23-298-591-313-597c-21-8-89-76-105-105
		c-13-24-18-67-22-191l-5-160l-97-3c-91-3-98-4-118-29c-25-32-26-64-1-94l19-24h2522h2522l19,24c25,30,24,62-2,95
		c-19,25-25,26-115,26h-94l-2,1418l-3,1419l-30,49c-19,30-49,60-79,79l-49,30l-346,3c-297,2-352,1-388-13c-44-17-115-87-136-133
		c-8-19-13-140-17-412l-5-385l-128,293c-70,161-130,299-133,307s49,73,126,157c83,90,142,164,160,201c61,123,65,252,10,379
		c-18,40-57,134-87,208s-60,141-66,147c-7,7-27,15-44,19c-26,5-37,1-57-19c-33-33-33-58,4-147c17-40,28-76,25-79
		c-14-13-340-130-347-123c-5,6-74,160-179,400l-19,43l28,11c75,32,97,97,46,137c-15,12-34,21-43,21c-8,0-207-76-441-170
		c-244-97-440-170-458-170c-37,0-102,24-102,38c0,5,21,19,48,30c26,11,166,76,312,145c727,341,718,337,760,337c96,0,138-41,200-194
		c43-108,65-136,108-136c28,0,72,42,72,69c0,12-21,73-46,137c-56,138-113,209-197,244l-52,22v66c0,59-6,78-48,166
		c-26,55-59,115-74,134C3166,5021,3057,5054,2980,5031z M3075,4884c22-9,115-197,115-233c0-33-24-56-89-86c-69-31-87-18-150,107
		c-51,102-53,108-41,139c10,23,28,38,64,55C3027,4891,3047,4894,3075,4884z M3733,3563c16-36,22-67,22-123c-1-104-23-142-194-328
		c-101-110-142-162-146-185c-8-39-5-45,149-396c64-146,114-266,111-269c-2-2-10-2-17,0c-15,6-479,636-485,658c-4,18,143,544,154,548
		c82,32,370,141,376,141C3707,3610,3721,3589,3733,3563z M775,3266c11-8,42-59,70-115c47-97,49-103,35-129c-9-15-39-39-72-55
		c-79-40-98-30-160,88c-53,101-59,141-25,172C677,3276,738,3292,775,3266z M3060,3099c-34-118-41-154-36-199c4-45,1-62-14-85
		c-35-53-27-94,69-333c72-178,86-222,73-222c-24,0-382,595-382,634c0,23,29,57,162,192c89,90,163,162,165,160S3082,3178,3060,3099z
		 M4711,3051l29-29V1626V230h-375h-375v540v541l-25,24c-31,32-69,32-100,0l-25-24V770V230h-375h-375v909v910l24,28l24,28l311,3
		c339,3,361,0,381-54c6-14,10-115,10-224c0-178,2-200,19-221c26-32,86-32,112,0c18,22,19,54,19,718v695l29,29l29,29h317h317
		L4711,3051z M3325,2449l136-184l-62-3c-34-2-65,1-70,5c-6,6-100,238-147,363C3173,2655,3185,2639,3325,2449z M1033,1808
		c4-79,10-233,14-343l6-201L819,992C691,842,580,720,572,720s4,31,34,87c206,385,224,423,224,477c0,25-28,157-61,291
		c-34,135-59,248-56,251c10,10,281,122,298,123C1025,1950,1028,1929,1033,1808z M1355,1804c155-105,178-124,189-160
		c4-12-7-130-24-262c-16-131-30-242-30-246c0-3-9-6-20-6s-20,6-20,13c0,64-44,415-54,436c-21,39-43,56-127,94l-76,34l-6,48
		c-12,84-9,167,6,158C1200,1909,1273,1859,1355,1804z M1265,1495c3-19,36-351,35-367c0-4-17-16-37-27c-49-25-77-55-102-111
		c-17-37-21-66-21-169c0-114-1-123-17-115c-10,4-89,10-176,13l-158,6l190,223c105,122,198,239,206,258c11,27,15,75,15,184v148l30-11
		C1247,1520,1263,1506,1265,1495z M2907,1406l28-24l3-576l2-576h-375h-375v571v571l29,29l29,29h316h315L2907,1406z M2007,956l28-24
		l3-351l3-351h-376h-375v350v351l25,24l24,25h320h320L2007,956z M1102,541l33-29l3-141l4-141H766H390v138c0,147,7,173,54,192
		c11,5,157,9,323,9l303,1L1102,541z"/>
</g>
</svg>
